<svg xmlns="http://www.w3.org/2000/svg" width="1500" height="610" viewBox="0 0 1500 610" role="img"><rect width="1500" height="610" fill="#f8f4ec"/><text x="60" y="52" font-size="30" font-weight="700" fill="#1c1b1a" font-family="Georgia, serif">Model scorecard</text><text x="60" y="80" font-size="15" fill="#6a645d" font-family="Helvetica, Arial, sans-serif">Each cell shows pass/fail plus a runtime bar for one task-condition-model run.</text><text x="60" y="146.0" font-size="15" fill="#1c1b1a" font-family="Helvetica, Arial, sans-serif">Claude Sonnet 4.5</text><text x="60" y="210.0" font-size="15" fill="#1c1b1a" font-family="Helvetica, Arial, sans-serif">Gemini 3 Flash</text><text x="60" y="274.0" font-size="15" fill="#1c1b1a" font-family="Helvetica, Arial, sans-serif">Gemini 3 Pro</text><text x="60" y="338.0" font-size="15" fill="#1c1b1a" font-family="Helvetica, Arial, sans-serif">Kimi K2</text><text x="60" y="402.0" font-size="15" fill="#1c1b1a" font-family="Helvetica, Arial, sans-serif">MiniMax M2.5</text><text x="385.0" y="102" text-anchor="middle" font-size="14" fill="#1c1b1a" font-family="Helvetica, Arial, sans-serif">Dependency audit</text><text x="385.0" y="124" text-anchor="middle" font-size="12" fill="#6a645d" font-family="Helvetica, Arial, sans-serif">No skill</text><text x="595.0" y="102" text-anchor="middle" font-size="14" fill="#1c1b1a" font-family="Helvetica, Arial, sans-serif">Dependency audit</text><text x="595.0" y="124" text-anchor="middle" font-size="12" fill="#6a645d" font-family="Helvetica, Arial, sans-serif">Improved skill</text><text x="805.0" y="102" text-anchor="middle" font-size="14" fill="#1c1b1a" font-family="Helvetica, Arial, sans-serif">SEC financial report</text><text x="805.0" y="124" text-anchor="middle" font-size="12" fill="#6a645d" font-family="Helvetica, Arial, sans-serif">No skill</text><text x="1015.0" y="102" text-anchor="middle" font-size="14" fill="#1c1b1a" font-family="Helvetica, Arial, sans-serif">SEC financial report</text><text x="1015.0" y="124" text-anchor="middle" font-size="12" fill="#6a645d" font-family="Helvetica, Arial, sans-serif">Improved skill</text><text x="1225.0" y="102" text-anchor="middle" font-size="14" fill="#1c1b1a" font-family="Helvetica, Arial, sans-serif">Sales pivot analysis</text><text x="1225.0" y="124" text-anchor="middle" font-size="12" fill="#6a645d" font-family="Helvetica, Arial, sans-serif">No skill</text><text x="1435.0" y="102" text-anchor="middle" font-size="14" fill="#1c1b1a" font-family="Helvetica, Arial, sans-serif">Sales pivot analysis</text><text x="1435.0" y="124" text-anchor="middle" font-size="12" fill="#6a645d" font-family="Helvetica, Arial, sans-serif">Improved skill</text><rect x="280" y="110" width="196" height="54" rx="10" fill="#c44536" opacity="0.95"/><text x="298" y="136" font-size="15" font-weight="700" fill="white" font-family="Helvetica, Arial, sans-serif">FAIL</text><rect x="298" y="145" width="160" height="12" rx="6" fill="white" opacity="0.22"/><rect x="298" y="145" width="32.2" height="12" rx="6" fill="white" opacity="0.92"/><text x="458" y="136" text-anchor="end" font-size="13" fill="white" font-family="Helvetica, Arial, sans-serif">120.1s</text><rect x="490" y="110" width="196" height="54" rx="10" fill="#1f7a4d" opacity="0.95"/><text x="508" y="136" font-size="15" font-weight="700" fill="white" font-family="Helvetica, Arial, sans-serif">PASS</text><rect x="508" y="145" width="160" height="12" rx="6" fill="white" opacity="0.22"/><rect x="508" y="145" width="17.0" height="12" rx="6" fill="white" opacity="0.92"/><text x="668" y="136" text-anchor="end" font-size="13" fill="white" font-family="Helvetica, Arial, sans-serif">63.4s</text><rect x="700" y="110" width="196" height="54" rx="10" fill="#1f7a4d" opacity="0.95"/><text x="718" y="136" font-size="15" font-weight="700" fill="white" font-family="Helvetica, Arial, sans-serif">PASS</text><rect x="718" y="145" width="160" height="12" rx="6" fill="white" opacity="0.22"/><rect x="718" y="145" width="11.7" height="12" rx="6" fill="white" opacity="0.92"/><text x="878" y="136" text-anchor="end" font-size="13" fill="white" font-family="Helvetica, Arial, sans-serif">43.8s</text><rect x="910" y="110" width="196" height="54" rx="10" fill="#1f7a4d" opacity="0.95"/><text x="928" y="136" font-size="15" font-weight="700" fill="white" font-family="Helvetica, Arial, sans-serif">PASS</text><rect x="928" y="145" width="160" height="12" rx="6" fill="white" opacity="0.22"/><rect x="928" y="145" width="14.7" height="12" rx="6" fill="white" opacity="0.92"/><text x="1088" y="136" text-anchor="end" font-size="13" fill="white" font-family="Helvetica, Arial, sans-serif">54.8s</text><rect x="1120" y="110" width="196" height="54" rx="10" fill="#1f7a4d" opacity="0.95"/><text x="1138" y="136" font-size="15" font-weight="700" fill="white" font-family="Helvetica, Arial, sans-serif">PASS</text><rect x="1138" y="145" width="160" height="12" rx="6" fill="white" opacity="0.22"/><rect x="1138" y="145" width="23.4" height="12" rx="6" fill="white" opacity="0.92"/><text x="1298" y="136" text-anchor="end" font-size="13" fill="white" font-family="Helvetica, Arial, sans-serif">87.5s</text><rect x="1330" y="110" width="196" height="54" rx="10" fill="#c44536" opacity="0.95"/><text x="1348" y="136" font-size="15" font-weight="700" fill="white" font-family="Helvetica, Arial, sans-serif">FAIL</text><rect x="1348" y="145" width="160" height="12" rx="6" fill="white" opacity="0.22"/><rect x="1348" y="145" width="24.9" height="12" rx="6" fill="white" opacity="0.92"/><text x="1508" y="136" text-anchor="end" font-size="13" fill="white" font-family="Helvetica, Arial, sans-serif">93.0s</text><rect x="280" y="174" width="196" height="54" rx="10" fill="#c44536" opacity="0.95"/><text x="298" y="200" font-size="15" font-weight="700" fill="white" font-family="Helvetica, Arial, sans-serif">FAIL</text><rect x="298" y="209" width="160" height="12" rx="6" fill="white" opacity="0.22"/><rect x="298" y="209" width="145.0" height="12" rx="6" fill="white" opacity="0.92"/><text x="458" y="200" text-anchor="end" font-size="13" fill="white" font-family="Helvetica, Arial, sans-serif">541.2s</text><rect x="490" y="174" width="196" height="54" rx="10" fill="#1f7a4d" opacity="0.95"/><text x="508" y="200" font-size="15" font-weight="700" fill="white" font-family="Helvetica, Arial, sans-serif">PASS</text><rect x="508" y="209" width="160" height="12" rx="6" fill="white" opacity="0.22"/><rect x="508" y="209" width="22.9" height="12" rx="6" fill="white" opacity="0.92"/><text x="668" y="200" text-anchor="end" font-size="13" fill="white" font-family="Helvetica, Arial, sans-serif">85.3s</text><rect x="700" y="174" width="196" height="54" rx="10" fill="#1f7a4d" opacity="0.95"/><text x="718" y="200" font-size="15" font-weight="700" fill="white" font-family="Helvetica, Arial, sans-serif">PASS</text><rect x="718" y="209" width="160" height="12" rx="6" fill="white" opacity="0.22"/><rect x="718" y="209" width="21.9" height="12" rx="6" fill="white" opacity="0.92"/><text x="878" y="200" text-anchor="end" font-size="13" fill="white" font-family="Helvetica, Arial, sans-serif">81.8s</text><rect x="910" y="174" width="196" height="54" rx="10" fill="#1f7a4d" opacity="0.95"/><text x="928" y="200" font-size="15" font-weight="700" fill="white" font-family="Helvetica, Arial, sans-serif">PASS</text><rect x="928" y="209" width="160" height="12" rx="6" fill="white" opacity="0.22"/><rect x="928" y="209" width="10.0" height="12" rx="6" fill="white" opacity="0.92"/><text x="1088" y="200" text-anchor="end" font-size="13" fill="white" font-family="Helvetica, Arial, sans-serif">27.6s</text><rect x="1120" y="174" width="196" height="54" rx="10" fill="#1f7a4d" opacity="0.95"/><text x="1138" y="200" font-size="15" font-weight="700" fill="white" font-family="Helvetica, Arial, sans-serif">PASS</text><rect x="1138" y="209" width="160" height="12" rx="6" fill="white" opacity="0.22"/><rect x="1138" y="209" width="35.2" height="12" rx="6" fill="white" opacity="0.92"/><text x="1298" y="200" text-anchor="end" font-size="13" fill="white" font-family="Helvetica, Arial, sans-serif">131.5s</text><rect x="1330" y="174" width="196" height="54" rx="10" fill="#1f7a4d" opacity="0.95"/><text x="1348" y="200" font-size="15" font-weight="700" fill="white" font-family="Helvetica, Arial, sans-serif">PASS</text><rect x="1348" y="209" width="160" height="12" rx="6" fill="white" opacity="0.22"/><rect x="1348" y="209" width="17.5" height="12" rx="6" fill="white" opacity="0.92"/><text x="1508" y="200" text-anchor="end" font-size="13" fill="white" font-family="Helvetica, Arial, sans-serif">65.5s</text><rect x="280" y="238" width="196" height="54" rx="10" fill="#c44536" opacity="0.95"/><text x="298" y="264" font-size="15" font-weight="700" fill="white" font-family="Helvetica, Arial, sans-serif">FAIL</text><rect x="298" y="273" width="160" height="12" rx="6" fill="white" opacity="0.22"/><rect x="298" y="273" width="104.3" height="12" rx="6" fill="white" opacity="0.92"/><text x="458" y="264" text-anchor="end" font-size="13" fill="white" font-family="Helvetica, Arial, sans-serif">389.0s</text><rect x="490" y="238" width="196" height="54" rx="10" fill="#1f7a4d" opacity="0.95"/><text x="508" y="264" font-size="15" font-weight="700" fill="white" font-family="Helvetica, Arial, sans-serif">PASS</text><rect x="508" y="273" width="160" height="12" rx="6" fill="white" opacity="0.22"/><rect x="508" y="273" width="80.4" height="12" rx="6" fill="white" opacity="0.92"/><text x="668" y="264" text-anchor="end" font-size="13" fill="white" font-family="Helvetica, Arial, sans-serif">299.9s</text><rect x="700" y="238" width="196" height="54" rx="10" fill="#1f7a4d" opacity="0.95"/><text x="718" y="264" font-size="15" font-weight="700" fill="white" font-family="Helvetica, Arial, sans-serif">PASS</text><rect x="718" y="273" width="160" height="12" rx="6" fill="white" opacity="0.22"/><rect x="718" y="273" width="26.3" height="12" rx="6" fill="white" opacity="0.92"/><text x="878" y="264" text-anchor="end" font-size="13" fill="white" font-family="Helvetica, Arial, sans-serif">98.2s</text><rect x="910" y="238" width="196" height="54" rx="10" fill="#1f7a4d" opacity="0.95"/><text x="928" y="264" font-size="15" font-weight="700" fill="white" font-family="Helvetica, Arial, sans-serif">PASS</text><rect x="928" y="273" width="160" height="12" rx="6" fill="white" opacity="0.22"/><rect x="928" y="273" width="27.9" height="12" rx="6" fill="white" opacity="0.92"/><text x="1088" y="264" text-anchor="end" font-size="13" fill="white" font-family="Helvetica, Arial, sans-serif">104.2s</text><rect x="1120" y="238" width="196" height="54" rx="10" fill="#c44536" opacity="0.95"/><text x="1138" y="264" font-size="15" font-weight="700" fill="white" font-family="Helvetica, Arial, sans-serif">FAIL</text><rect x="1138" y="273" width="160" height="12" rx="6" fill="white" opacity="0.22"/><rect x="1138" y="273" width="85.2" height="12" rx="6" fill="white" opacity="0.92"/><text x="1298" y="264" text-anchor="end" font-size="13" fill="white" font-family="Helvetica, Arial, sans-serif">317.9s</text><rect x="1330" y="238" width="196" height="54" rx="10" fill="#1f7a4d" opacity="0.95"/><text x="1348" y="264" font-size="15" font-weight="700" fill="white" font-family="Helvetica, Arial, sans-serif">PASS</text><rect x="1348" y="273" width="160" height="12" rx="6" fill="white" opacity="0.22"/><rect x="1348" y="273" width="39.5" height="12" rx="6" fill="white" opacity="0.92"/><text x="1508" y="264" text-anchor="end" font-size="13" fill="white" font-family="Helvetica, Arial, sans-serif">147.4s</text><rect x="280" y="302" width="196" height="54" rx="10" fill="#c44536" opacity="0.95"/><text x="298" y="328" font-size="15" font-weight="700" fill="white" font-family="Helvetica, Arial, sans-serif">FAIL</text><rect x="298" y="337" width="160" height="12" rx="6" fill="white" opacity="0.22"/><rect x="298" y="337" width="73.2" height="12" rx="6" fill="white" opacity="0.92"/><text x="458" y="328" text-anchor="end" font-size="13" fill="white" font-family="Helvetica, Arial, sans-serif">273.0s</text><rect x="490" y="302" width="196" height="54" rx="10" fill="#1f7a4d" opacity="0.95"/><text x="508" y="328" font-size="15" font-weight="700" fill="white" font-family="Helvetica, Arial, sans-serif">PASS</text><rect x="508" y="337" width="160" height="12" rx="6" fill="white" opacity="0.22"/><rect x="508" y="337" width="23.0" height="12" rx="6" fill="white" opacity="0.92"/><text x="668" y="328" text-anchor="end" font-size="13" fill="white" font-family="Helvetica, Arial, sans-serif">85.8s</text><rect x="700" y="302" width="196" height="54" rx="10" fill="#1f7a4d" opacity="0.95"/><text x="718" y="328" font-size="15" font-weight="700" fill="white" font-family="Helvetica, Arial, sans-serif">PASS</text><rect x="718" y="337" width="160" height="12" rx="6" fill="white" opacity="0.22"/><rect x="718" y="337" width="24.9" height="12" rx="6" fill="white" opacity="0.92"/><text x="878" y="328" text-anchor="end" font-size="13" fill="white" font-family="Helvetica, Arial, sans-serif">92.9s</text><rect x="910" y="302" width="196" height="54" rx="10" fill="#1f7a4d" opacity="0.95"/><text x="928" y="328" font-size="15" font-weight="700" fill="white" font-family="Helvetica, Arial, sans-serif">PASS</text><rect x="928" y="337" width="160" height="12" rx="6" fill="white" opacity="0.22"/><rect x="928" y="337" width="28.9" height="12" rx="6" fill="white" opacity="0.92"/><text x="1088" y="328" text-anchor="end" font-size="13" fill="white" font-family="Helvetica, Arial, sans-serif">107.9s</text><rect x="1120" y="302" width="196" height="54" rx="10" fill="#c44536" opacity="0.95"/><text x="1138" y="328" font-size="15" font-weight="700" fill="white" font-family="Helvetica, Arial, sans-serif">FAIL</text><rect x="1138" y="337" width="160" height="12" rx="6" fill="white" opacity="0.22"/><text x="1298" y="328" text-anchor="end" font-size="13" fill="white" font-family="Helvetica, Arial, sans-serif">n/a</text><rect x="1330" y="302" width="196" height="54" rx="10" fill="#1f7a4d" opacity="0.95"/><text x="1348" y="328" font-size="15" font-weight="700" fill="white" font-family="Helvetica, Arial, sans-serif">PASS</text><rect x="1348" y="337" width="160" height="12" rx="6" fill="white" opacity="0.22"/><rect x="1348" y="337" width="73.0" height="12" rx="6" fill="white" opacity="0.92"/><text x="1508" y="328" text-anchor="end" font-size="13" fill="white" font-family="Helvetica, Arial, sans-serif">272.5s</text><rect x="280" y="366" width="196" height="54" rx="10" fill="#c44536" opacity="0.95"/><text x="298" y="392" font-size="15" font-weight="700" fill="white" font-family="Helvetica, Arial, sans-serif">FAIL</text><rect x="298" y="401" width="160" height="12" rx="6" fill="white" opacity="0.22"/><rect x="298" y="401" width="58.4" height="12" rx="6" fill="white" opacity="0.92"/><text x="458" y="392" text-anchor="end" font-size="13" fill="white" font-family="Helvetica, Arial, sans-serif">217.9s</text><rect x="490" y="366" width="196" height="54" rx="10" fill="#1f7a4d" opacity="0.95"/><text x="508" y="392" font-size="15" font-weight="700" fill="white" font-family="Helvetica, Arial, sans-serif">PASS</text><rect x="508" y="401" width="160" height="12" rx="6" fill="white" opacity="0.22"/><rect x="508" y="401" width="15.2" height="12" rx="6" fill="white" opacity="0.92"/><text x="668" y="392" text-anchor="end" font-size="13" fill="white" font-family="Helvetica, Arial, sans-serif">56.5s</text><rect x="700" y="366" width="196" height="54" rx="10" fill="#1f7a4d" opacity="0.95"/><text x="718" y="392" font-size="15" font-weight="700" fill="white" font-family="Helvetica, Arial, sans-serif">PASS</text><rect x="718" y="401" width="160" height="12" rx="6" fill="white" opacity="0.22"/><rect x="718" y="401" width="13.3" height="12" rx="6" fill="white" opacity="0.92"/><text x="878" y="392" text-anchor="end" font-size="13" fill="white" font-family="Helvetica, Arial, sans-serif">49.6s</text><rect x="910" y="366" width="196" height="54" rx="10" fill="#1f7a4d" opacity="0.95"/><text x="928" y="392" font-size="15" font-weight="700" fill="white" font-family="Helvetica, Arial, sans-serif">PASS</text><rect x="928" y="401" width="160" height="12" rx="6" fill="white" opacity="0.22"/><rect x="928" y="401" width="18.9" height="12" rx="6" fill="white" opacity="0.92"/><text x="1088" y="392" text-anchor="end" font-size="13" fill="white" font-family="Helvetica, Arial, sans-serif">70.5s</text><rect x="1120" y="366" width="196" height="54" rx="10" fill="#1f7a4d" opacity="0.95"/><text x="1138" y="392" font-size="15" font-weight="700" fill="white" font-family="Helvetica, Arial, sans-serif">PASS</text><rect x="1138" y="401" width="160" height="12" rx="6" fill="white" opacity="0.22"/><rect x="1138" y="401" width="24.9" height="12" rx="6" fill="white" opacity="0.92"/><text x="1298" y="392" text-anchor="end" font-size="13" fill="white" font-family="Helvetica, Arial, sans-serif">92.8s</text><rect x="1330" y="366" width="196" height="54" rx="10" fill="#1f7a4d" opacity="0.95"/><text x="1348" y="392" font-size="15" font-weight="700" fill="white" font-family="Helvetica, Arial, sans-serif">PASS</text><rect x="1348" y="401" width="160" height="12" rx="6" fill="white" opacity="0.22"/><rect x="1348" y="401" width="36.6" height="12" rx="6" fill="white" opacity="0.92"/><text x="1508" y="392" text-anchor="end" font-size="13" fill="white" font-family="Helvetica, Arial, sans-serif">136.6s</text><rect x="60" y="566" width="160" height="12" rx="6" fill="#d8d2c8"/><rect x="60" y="566" width="80" height="12" rx="6" fill="#1c1b1a" opacity="0.65"/><text x="230" y="576" font-size="13" fill="#6a645d" font-family="Helvetica, Arial, sans-serif">Longer bar = longer runtime, scaled to the slowest run</text></svg>