<svg xmlns="http://www.w3.org/2000/svg" width="1100" height="830" viewBox="0 0 1100 830" role="img"><rect width="1100" height="830" fill="#f8f4ec"/><text x="60" y="52" font-size="30" font-weight="700" fill="#1c1b1a" font-family="Georgia, serif">Model breakdown by task</text><text x="60" y="80" font-size="15" fill="#6a645d" font-family="Helvetica, Arial, sans-serif">Each task gets its own section, with pass/fail and runtime bars for no-skill vs improved-skill.</text><rect x="60" y="110" width="980" height="218" rx="18" fill="white" opacity="0.72" stroke="#d8d2c8"/><text x="80" y="140" font-size="24" font-weight="700" fill="#1c1b1a" font-family="Georgia, serif">Dependency audit</text><rect x="330" y="124" width="16" height="16" rx="4" fill="#d97b29"/><text x="354" y="138" font-size="14" fill="#1c1b1a" font-family="Helvetica, Arial, sans-serif">No skill</text><rect x="710" y="124" width="16" height="16" rx="4" fill="#0b6e4f"/><text x="734" y="138" font-size="14" fill="#1c1b1a" font-family="Helvetica, Arial, sans-serif">Improved skill</text><text x="80" y="184" font-size="14" fill="#1c1b1a" font-family="Helvetica, Arial, sans-serif">Claude Sonnet 4.5</text><rect x="330" y="168" width="56" height="20" rx="10" fill="#c44536"/><text x="358" y="182" text-anchor="middle" font-size="11" font-weight="700" fill="white" font-family="Helvetica, Arial, sans-serif">FAIL</text><rect x="422" y="172" width="220" height="12" rx="6" fill="#d8d2c8"/><rect x="422" y="172" width="44.3" height="12" rx="6" fill="#c44536"/><text x="656" y="182" text-anchor="end" font-size="12" fill="#1c1b1a" font-family="Helvetica, Arial, sans-serif">120.1s</text><rect x="710" y="168" width="56" height="20" rx="10" fill="#1f7a4d"/><text x="738" y="182" text-anchor="middle" font-size="11" font-weight="700" fill="white" font-family="Helvetica, Arial, sans-serif">PASS</text><rect x="802" y="172" width="220" height="12" rx="6" fill="#d8d2c8"/><rect x="802" y="172" width="23.4" height="12" rx="6" fill="#1f7a4d"/><text x="1036" y="182" text-anchor="end" font-size="12" fill="#1c1b1a" font-family="Helvetica, Arial, sans-serif">63.4s</text><text x="80" y="214" font-size="14" fill="#1c1b1a" font-family="Helvetica, Arial, sans-serif">Gemini 3 Flash</text><rect x="330" y="198" width="56" height="20" rx="10" fill="#c44536"/><text x="358" y="212" text-anchor="middle" font-size="11" font-weight="700" fill="white" font-family="Helvetica, Arial, sans-serif">FAIL</text><rect x="422" y="202" width="220" height="12" rx="6" fill="#d8d2c8"/><rect x="422" y="202" width="199.4" height="12" rx="6" fill="#c44536"/><text x="656" y="212" text-anchor="end" font-size="12" fill="#1c1b1a" font-family="Helvetica, Arial, sans-serif">541.2s</text><rect x="710" y="198" width="56" height="20" rx="10" fill="#1f7a4d"/><text x="738" y="212" text-anchor="middle" font-size="11" font-weight="700" fill="white" font-family="Helvetica, Arial, sans-serif">PASS</text><rect x="802" y="202" width="220" height="12" rx="6" fill="#d8d2c8"/><rect x="802" y="202" width="31.4" height="12" rx="6" fill="#1f7a4d"/><text x="1036" y="212" text-anchor="end" font-size="12" fill="#1c1b1a" font-family="Helvetica, Arial, sans-serif">85.3s</text><text x="80" y="244" font-size="14" fill="#1c1b1a" font-family="Helvetica, Arial, sans-serif">Gemini 3 Pro</text><rect x="330" y="228" width="56" height="20" rx="10" fill="#c44536"/><text x="358" y="242" text-anchor="middle" font-size="11" font-weight="700" fill="white" font-family="Helvetica, Arial, sans-serif">FAIL</text><rect x="422" y="232" width="220" height="12" rx="6" fill="#d8d2c8"/><rect x="422" y="232" width="143.3" height="12" rx="6" fill="#c44536"/><text x="656" y="242" text-anchor="end" font-size="12" fill="#1c1b1a" font-family="Helvetica, Arial, sans-serif">389.0s</text><rect x="710" y="228" width="56" height="20" rx="10" fill="#1f7a4d"/><text x="738" y="242" text-anchor="middle" font-size="11" font-weight="700" fill="white" font-family="Helvetica, Arial, sans-serif">PASS</text><rect x="802" y="232" width="220" height="12" rx="6" fill="#d8d2c8"/><rect x="802" y="232" width="110.5" height="12" rx="6" fill="#1f7a4d"/><text x="1036" y="242" text-anchor="end" font-size="12" fill="#1c1b1a" font-family="Helvetica, Arial, sans-serif">299.9s</text><text x="80" y="274" font-size="14" fill="#1c1b1a" font-family="Helvetica, Arial, sans-serif">Kimi K2</text><rect x="330" y="258" width="56" height="20" rx="10" fill="#c44536"/><text x="358" y="272" text-anchor="middle" font-size="11" font-weight="700" fill="white" font-family="Helvetica, Arial, sans-serif">FAIL</text><rect x="422" y="262" width="220" height="12" rx="6" fill="#d8d2c8"/><rect x="422" y="262" width="100.6" height="12" rx="6" fill="#c44536"/><text x="656" y="272" text-anchor="end" font-size="12" fill="#1c1b1a" font-family="Helvetica, Arial, sans-serif">273.0s</text><rect x="710" y="258" width="56" height="20" rx="10" fill="#1f7a4d"/><text x="738" y="272" text-anchor="middle" font-size="11" font-weight="700" fill="white" font-family="Helvetica, Arial, sans-serif">PASS</text><rect x="802" y="262" width="220" height="12" rx="6" fill="#d8d2c8"/><rect x="802" y="262" width="31.6" height="12" rx="6" fill="#1f7a4d"/><text x="1036" y="272" text-anchor="end" font-size="12" fill="#1c1b1a" font-family="Helvetica, Arial, sans-serif">85.8s</text><text x="80" y="304" font-size="14" fill="#1c1b1a" font-family="Helvetica, Arial, sans-serif">MiniMax M2.5</text><rect x="330" y="288" width="56" height="20" rx="10" fill="#c44536"/><text x="358" y="302" text-anchor="middle" font-size="11" font-weight="700" fill="white" font-family="Helvetica, Arial, sans-serif">FAIL</text><rect x="422" y="292" width="220" height="12" rx="6" fill="#d8d2c8"/><rect x="422" y="292" width="80.3" height="12" rx="6" fill="#c44536"/><text x="656" y="302" text-anchor="end" font-size="12" fill="#1c1b1a" font-family="Helvetica, Arial, sans-serif">217.9s</text><rect x="710" y="288" width="56" height="20" rx="10" fill="#1f7a4d"/><text x="738" y="302" text-anchor="middle" font-size="11" font-weight="700" fill="white" font-family="Helvetica, Arial, sans-serif">PASS</text><rect x="802" y="292" width="220" height="12" rx="6" fill="#d8d2c8"/><rect x="802" y="292" width="20.8" height="12" rx="6" fill="#1f7a4d"/><text x="1036" y="302" text-anchor="end" font-size="12" fill="#1c1b1a" font-family="Helvetica, Arial, sans-serif">56.5s</text><rect x="60" y="350" width="980" height="218" rx="18" fill="white" opacity="0.72" stroke="#d8d2c8"/><text x="80" y="380" font-size="24" font-weight="700" fill="#1c1b1a" font-family="Georgia, serif">SEC financial report</text><rect x="330" y="364" width="16" height="16" rx="4" fill="#d97b29"/><text x="354" y="378" font-size="14" fill="#1c1b1a" font-family="Helvetica, Arial, sans-serif">No skill</text><rect x="710" y="364" width="16" height="16" rx="4" fill="#0b6e4f"/><text x="734" y="378" font-size="14" fill="#1c1b1a" font-family="Helvetica, Arial, sans-serif">Improved skill</text><text x="80" y="424" font-size="14" fill="#1c1b1a" font-family="Helvetica, Arial, sans-serif">Claude Sonnet 4.5</text><rect x="330" y="408" width="56" height="20" rx="10" fill="#1f7a4d"/><text x="358" y="422" text-anchor="middle" font-size="11" font-weight="700" fill="white" font-family="Helvetica, Arial, sans-serif">PASS</text><rect x="422" y="412" width="220" height="12" rx="6" fill="#d8d2c8"/><rect x="422" y="412" width="16.1" height="12" rx="6" fill="#1f7a4d"/><text x="656" y="422" text-anchor="end" font-size="12" fill="#1c1b1a" font-family="Helvetica, Arial, sans-serif">43.8s</text><rect x="710" y="408" width="56" height="20" rx="10" fill="#1f7a4d"/><text x="738" y="422" text-anchor="middle" font-size="11" font-weight="700" fill="white" font-family="Helvetica, Arial, sans-serif">PASS</text><rect x="802" y="412" width="220" height="12" rx="6" fill="#d8d2c8"/><rect x="802" y="412" width="20.2" height="12" rx="6" fill="#1f7a4d"/><text x="1036" y="422" text-anchor="end" font-size="12" fill="#1c1b1a" font-family="Helvetica, Arial, sans-serif">54.8s</text><text x="80" y="454" font-size="14" fill="#1c1b1a" font-family="Helvetica, Arial, sans-serif">Gemini 3 Flash</text><rect x="330" y="438" width="56" height="20" rx="10" fill="#1f7a4d"/><text x="358" y="452" text-anchor="middle" font-size="11" font-weight="700" fill="white" font-family="Helvetica, Arial, sans-serif">PASS</text><rect x="422" y="442" width="220" height="12" rx="6" fill="#d8d2c8"/><rect x="422" y="442" width="30.1" height="12" rx="6" fill="#1f7a4d"/><text x="656" y="452" text-anchor="end" font-size="12" fill="#1c1b1a" font-family="Helvetica, Arial, sans-serif">81.8s</text><rect x="710" y="438" width="56" height="20" rx="10" fill="#1f7a4d"/><text x="738" y="452" text-anchor="middle" font-size="11" font-weight="700" fill="white" font-family="Helvetica, Arial, sans-serif">PASS</text><rect x="802" y="442" width="220" height="12" rx="6" fill="#d8d2c8"/><rect x="802" y="442" width="10.2" height="12" rx="6" fill="#1f7a4d"/><text x="1036" y="452" text-anchor="end" font-size="12" fill="#1c1b1a" font-family="Helvetica, Arial, sans-serif">27.6s</text><text x="80" y="484" font-size="14" fill="#1c1b1a" font-family="Helvetica, Arial, sans-serif">Gemini 3 Pro</text><rect x="330" y="468" width="56" height="20" rx="10" fill="#1f7a4d"/><text x="358" y="482" text-anchor="middle" font-size="11" font-weight="700" fill="white" font-family="Helvetica, Arial, sans-serif">PASS</text><rect x="422" y="472" width="220" height="12" rx="6" fill="#d8d2c8"/><rect x="422" y="472" width="36.2" height="12" rx="6" fill="#1f7a4d"/><text x="656" y="482" text-anchor="end" font-size="12" fill="#1c1b1a" font-family="Helvetica, Arial, sans-serif">98.2s</text><rect x="710" y="468" width="56" height="20" rx="10" fill="#1f7a4d"/><text x="738" y="482" text-anchor="middle" font-size="11" font-weight="700" fill="white" font-family="Helvetica, Arial, sans-serif">PASS</text><rect x="802" y="472" width="220" height="12" rx="6" fill="#d8d2c8"/><rect x="802" y="472" width="38.4" height="12" rx="6" fill="#1f7a4d"/><text x="1036" y="482" text-anchor="end" font-size="12" fill="#1c1b1a" font-family="Helvetica, Arial, sans-serif">104.2s</text><text x="80" y="514" font-size="14" fill="#1c1b1a" font-family="Helvetica, Arial, sans-serif">Kimi K2</text><rect x="330" y="498" width="56" height="20" rx="10" fill="#1f7a4d"/><text x="358" y="512" text-anchor="middle" font-size="11" font-weight="700" fill="white" font-family="Helvetica, Arial, sans-serif">PASS</text><rect x="422" y="502" width="220" height="12" rx="6" fill="#d8d2c8"/><rect x="422" y="502" width="34.2" height="12" rx="6" fill="#1f7a4d"/><text x="656" y="512" text-anchor="end" font-size="12" fill="#1c1b1a" font-family="Helvetica, Arial, sans-serif">92.9s</text><rect x="710" y="498" width="56" height="20" rx="10" fill="#1f7a4d"/><text x="738" y="512" text-anchor="middle" font-size="11" font-weight="700" fill="white" font-family="Helvetica, Arial, sans-serif">PASS</text><rect x="802" y="502" width="220" height="12" rx="6" fill="#d8d2c8"/><rect x="802" y="502" width="39.8" height="12" rx="6" fill="#1f7a4d"/><text x="1036" y="512" text-anchor="end" font-size="12" fill="#1c1b1a" font-family="Helvetica, Arial, sans-serif">107.9s</text><text x="80" y="544" font-size="14" fill="#1c1b1a" font-family="Helvetica, Arial, sans-serif">MiniMax M2.5</text><rect x="330" y="528" width="56" height="20" rx="10" fill="#1f7a4d"/><text x="358" y="542" text-anchor="middle" font-size="11" font-weight="700" fill="white" font-family="Helvetica, Arial, sans-serif">PASS</text><rect x="422" y="532" width="220" height="12" rx="6" fill="#d8d2c8"/><rect x="422" y="532" width="18.3" height="12" rx="6" fill="#1f7a4d"/><text x="656" y="542" text-anchor="end" font-size="12" fill="#1c1b1a" font-family="Helvetica, Arial, sans-serif">49.6s</text><rect x="710" y="528" width="56" height="20" rx="10" fill="#1f7a4d"/><text x="738" y="542" text-anchor="middle" font-size="11" font-weight="700" fill="white" font-family="Helvetica, Arial, sans-serif">PASS</text><rect x="802" y="532" width="220" height="12" rx="6" fill="#d8d2c8"/><rect x="802" y="532" width="26.0" height="12" rx="6" fill="#1f7a4d"/><text x="1036" y="542" text-anchor="end" font-size="12" fill="#1c1b1a" font-family="Helvetica, Arial, sans-serif">70.5s</text><rect x="60" y="590" width="980" height="218" rx="18" fill="white" opacity="0.72" stroke="#d8d2c8"/><text x="80" y="620" font-size="24" font-weight="700" fill="#1c1b1a" font-family="Georgia, serif">Sales pivot analysis</text><rect x="330" y="604" width="16" height="16" rx="4" fill="#d97b29"/><text x="354" y="618" font-size="14" fill="#1c1b1a" font-family="Helvetica, Arial, sans-serif">No skill</text><rect x="710" y="604" width="16" height="16" rx="4" fill="#0b6e4f"/><text x="734" y="618" font-size="14" fill="#1c1b1a" font-family="Helvetica, Arial, sans-serif">Improved skill</text><text x="80" y="664" font-size="14" fill="#1c1b1a" font-family="Helvetica, Arial, sans-serif">Claude Sonnet 4.5</text><rect x="330" y="648" width="56" height="20" rx="10" fill="#1f7a4d"/><text x="358" y="662" text-anchor="middle" font-size="11" font-weight="700" fill="white" font-family="Helvetica, Arial, sans-serif">PASS</text><rect x="422" y="652" width="220" height="12" rx="6" fill="#d8d2c8"/><rect x="422" y="652" width="32.2" height="12" rx="6" fill="#1f7a4d"/><text x="656" y="662" text-anchor="end" font-size="12" fill="#1c1b1a" font-family="Helvetica, Arial, sans-serif">87.5s</text><rect x="710" y="648" width="56" height="20" rx="10" fill="#c44536"/><text x="738" y="662" text-anchor="middle" font-size="11" font-weight="700" fill="white" font-family="Helvetica, Arial, sans-serif">FAIL</text><rect x="802" y="652" width="220" height="12" rx="6" fill="#d8d2c8"/><rect x="802" y="652" width="34.3" height="12" rx="6" fill="#c44536"/><text x="1036" y="662" text-anchor="end" font-size="12" fill="#1c1b1a" font-family="Helvetica, Arial, sans-serif">93.0s</text><text x="80" y="694" font-size="14" fill="#1c1b1a" font-family="Helvetica, Arial, sans-serif">Gemini 3 Flash</text><rect x="330" y="678" width="56" height="20" rx="10" fill="#1f7a4d"/><text x="358" y="692" text-anchor="middle" font-size="11" font-weight="700" fill="white" font-family="Helvetica, Arial, sans-serif">PASS</text><rect x="422" y="682" width="220" height="12" rx="6" fill="#d8d2c8"/><rect x="422" y="682" width="48.5" height="12" rx="6" fill="#1f7a4d"/><text x="656" y="692" text-anchor="end" font-size="12" fill="#1c1b1a" font-family="Helvetica, Arial, sans-serif">131.5s</text><rect x="710" y="678" width="56" height="20" rx="10" fill="#1f7a4d"/><text x="738" y="692" text-anchor="middle" font-size="11" font-weight="700" fill="white" font-family="Helvetica, Arial, sans-serif">PASS</text><rect x="802" y="682" width="220" height="12" rx="6" fill="#d8d2c8"/><rect x="802" y="682" width="24.1" height="12" rx="6" fill="#1f7a4d"/><text x="1036" y="692" text-anchor="end" font-size="12" fill="#1c1b1a" font-family="Helvetica, Arial, sans-serif">65.5s</text><text x="80" y="724" font-size="14" fill="#1c1b1a" font-family="Helvetica, Arial, sans-serif">Gemini 3 Pro</text><rect x="330" y="708" width="56" height="20" rx="10" fill="#c44536"/><text x="358" y="722" text-anchor="middle" font-size="11" font-weight="700" fill="white" font-family="Helvetica, Arial, sans-serif">FAIL</text><rect x="422" y="712" width="220" height="12" rx="6" fill="#d8d2c8"/><rect x="422" y="712" width="117.2" height="12" rx="6" fill="#c44536"/><text x="656" y="722" text-anchor="end" font-size="12" fill="#1c1b1a" font-family="Helvetica, Arial, sans-serif">317.9s</text><rect x="710" y="708" width="56" height="20" rx="10" fill="#1f7a4d"/><text x="738" y="722" text-anchor="middle" font-size="11" font-weight="700" fill="white" font-family="Helvetica, Arial, sans-serif">PASS</text><rect x="802" y="712" width="220" height="12" rx="6" fill="#d8d2c8"/><rect x="802" y="712" width="54.3" height="12" rx="6" fill="#1f7a4d"/><text x="1036" y="722" text-anchor="end" font-size="12" fill="#1c1b1a" font-family="Helvetica, Arial, sans-serif">147.4s</text><text x="80" y="754" font-size="14" fill="#1c1b1a" font-family="Helvetica, Arial, sans-serif">Kimi K2</text><rect x="330" y="738" width="56" height="20" rx="10" fill="#c44536"/><text x="358" y="752" text-anchor="middle" font-size="11" font-weight="700" fill="white" font-family="Helvetica, Arial, sans-serif">FAIL</text><rect x="422" y="742" width="220" height="12" rx="6" fill="#d8d2c8"/><text x="656" y="752" text-anchor="end" font-size="12" fill="#1c1b1a" font-family="Helvetica, Arial, sans-serif">n/a</text><rect x="710" y="738" width="56" height="20" rx="10" fill="#1f7a4d"/><text x="738" y="752" text-anchor="middle" font-size="11" font-weight="700" fill="white" font-family="Helvetica, Arial, sans-serif">PASS</text><rect x="802" y="742" width="220" height="12" rx="6" fill="#d8d2c8"/><rect x="802" y="742" width="100.4" height="12" rx="6" fill="#1f7a4d"/><text x="1036" y="752" text-anchor="end" font-size="12" fill="#1c1b1a" font-family="Helvetica, Arial, sans-serif">272.5s</text><text x="80" y="784" font-size="14" fill="#1c1b1a" font-family="Helvetica, Arial, sans-serif">MiniMax M2.5</text><rect x="330" y="768" width="56" height="20" rx="10" fill="#1f7a4d"/><text x="358" y="782" text-anchor="middle" font-size="11" font-weight="700" fill="white" font-family="Helvetica, Arial, sans-serif">PASS</text><rect x="422" y="772" width="220" height="12" rx="6" fill="#d8d2c8"/><rect x="422" y="772" width="34.2" height="12" rx="6" fill="#1f7a4d"/><text x="656" y="782" text-anchor="end" font-size="12" fill="#1c1b1a" font-family="Helvetica, Arial, sans-serif">92.8s</text><rect x="710" y="768" width="56" height="20" rx="10" fill="#1f7a4d"/><text x="738" y="782" text-anchor="middle" font-size="11" font-weight="700" fill="white" font-family="Helvetica, Arial, sans-serif">PASS</text><rect x="802" y="772" width="220" height="12" rx="6" fill="#d8d2c8"/><rect x="802" y="772" width="50.4" height="12" rx="6" fill="#1f7a4d"/><text x="1036" y="782" text-anchor="end" font-size="12" fill="#1c1b1a" font-family="Helvetica, Arial, sans-serif">136.6s</text><text x="60" y="812" font-size="13" fill="#6a645d" font-family="Helvetica, Arial, sans-serif">Longer bars mean longer runtime, scaled to the slowest run in the full matrix.</text></svg>