<svg xmlns="http://www.w3.org/2000/svg" width="1500" height="610" viewBox="0 0 1500 610" role="img"><rect width="1500" height="610" fill="#f8f4ec"/><text x="60" y="52" font-size="30" font-weight="700" fill="#1c1b1a" font-family="Georgia, serif">Model scorecard</text><text x="60" y="80" font-size="15" fill="#6a645d" font-family="Helvetica, Arial, sans-serif">Each cell shows pass/fail plus a runtime bar for one task-condition-model run.</text><text x="60" y="146.0" font-size="15" fill="#1c1b1a" font-family="Helvetica, Arial, sans-serif">Claude Sonnet 4.5</text><text x="60" y="210.0" font-size="15" fill="#1c1b1a" font-family="Helvetica, Arial, sans-serif">Gemini 3 Flash</text><text x="60" y="274.0" font-size="15" fill="#1c1b1a" font-family="Helvetica, Arial, sans-serif">Gemini 3 Pro</text><text x="60" y="338.0" font-size="15" fill="#1c1b1a" font-family="Helvetica, Arial, sans-serif">Kimi K2</text><text x="60" y="402.0" font-size="15" fill="#1c1b1a" font-family="Helvetica, Arial, sans-serif">MiniMax M2.5</text><text x="385.0" y="102" text-anchor="middle" font-size="14" fill="#1c1b1a" font-family="Helvetica, Arial, sans-serif">Dependency audit</text><text x="385.0" y="124" text-anchor="middle" font-size="12" fill="#6a645d" font-family="Helvetica, Arial, sans-serif">No skill</text><text x="595.0" y="102" text-anchor="middle" font-size="14" fill="#1c1b1a" font-family="Helvetica, Arial, sans-serif">Dependency audit</text><text x="595.0" y="124" text-anchor="middle" font-size="12" fill="#6a645d" font-family="Helvetica, Arial, sans-serif">Improved skill</text><text x="805.0" y="102" text-anchor="middle" font-size="14" fill="#1c1b1a" font-family="Helvetica, Arial, sans-serif">SEC financial report</text><text x="805.0" y="124" text-anchor="middle" font-size="12" fill="#6a645d" font-family="Helvetica, Arial, sans-serif">No skill</text><text x="1015.0" y="102" text-anchor="middle" font-size="14" fill="#1c1b1a" font-family="Helvetica, Arial, sans-serif">SEC financial report</text><text x="1015.0" y="124" text-anchor="middle" font-size="12" fill="#6a645d" font-family="Helvetica, Arial, sans-serif">Improved skill</text><text x="1225.0" y="102" text-anchor="middle" font-size="14" fill="#1c1b1a" font-family="Helvetica, Arial, sans-serif">Sales pivot analysis</text><text x="1225.0" y="124" text-anchor="middle" font-size="12" fill="#6a645d" font-family="Helvetica, Arial, sans-serif">No skill</text><text x="1435.0" y="102" text-anchor="middle" font-size="14" fill="#1c1b1a" font-family="Helvetica, Arial, sans-serif">Sales pivot analysis</text><text x="1435.0" y="124" text-anchor="middle" font-size="12" fill="#6a645d" font-family="Helvetica, Arial, sans-serif">Improved skill</text><rect x="280" y="110" width="196" height="54" rx="10" fill="#c44536" opacity="0.95"/><text x="298" y="136" font-size="15" font-weight="700" fill="white" font-family="Helvetica, Arial, sans-serif">FAIL</text><rect x="298" y="145" width="160" height="12" rx="6" fill="white" opacity="0.22"/><rect x="298" y="145" width="75.3" height="12" rx="6" fill="white" opacity="0.92"/><text x="458" y="136" text-anchor="end" font-size="13" fill="white" font-family="Helvetica, Arial, sans-serif">283.1s</text><rect x="490" y="110" width="196" height="54" rx="10" fill="#1f7a4d" opacity="0.95"/><text x="508" y="136" font-size="15" font-weight="700" fill="white" font-family="Helvetica, Arial, sans-serif">PASS</text><rect x="508" y="145" width="160" height="12" rx="6" fill="white" opacity="0.22"/><rect x="508" y="145" width="19.8" height="12" rx="6" fill="white" opacity="0.92"/><text x="668" y="136" text-anchor="end" font-size="13" fill="white" font-family="Helvetica, Arial, sans-serif">74.3s</text><rect x="700" y="110" width="196" height="54" rx="10" fill="#1f7a4d" opacity="0.95"/><text x="718" y="136" font-size="15" font-weight="700" fill="white" font-family="Helvetica, Arial, sans-serif">PASS</text><rect x="718" y="145" width="160" height="12" rx="6" fill="white" opacity="0.22"/><rect x="718" y="145" width="14.2" height="12" rx="6" fill="white" opacity="0.92"/><text x="878" y="136" text-anchor="end" font-size="13" fill="white" font-family="Helvetica, Arial, sans-serif">53.5s</text><rect x="910" y="110" width="196" height="54" rx="10" fill="#1f7a4d" opacity="0.95"/><text x="928" y="136" font-size="15" font-weight="700" fill="white" font-family="Helvetica, Arial, sans-serif">PASS</text><rect x="928" y="145" width="160" height="12" rx="6" fill="white" opacity="0.22"/><rect x="928" y="145" width="15.0" height="12" rx="6" fill="white" opacity="0.92"/><text x="1088" y="136" text-anchor="end" font-size="13" fill="white" font-family="Helvetica, Arial, sans-serif">56.5s</text><rect x="1120" y="110" width="196" height="54" rx="10" fill="#1f7a4d" opacity="0.95"/><text x="1138" y="136" font-size="15" font-weight="700" fill="white" font-family="Helvetica, Arial, sans-serif">PASS</text><rect x="1138" y="145" width="160" height="12" rx="6" fill="white" opacity="0.22"/><rect x="1138" y="145" width="29.4" height="12" rx="6" fill="white" opacity="0.92"/><text x="1298" y="136" text-anchor="end" font-size="13" fill="white" font-family="Helvetica, Arial, sans-serif">110.7s</text><rect x="1330" y="110" width="196" height="54" rx="10" fill="#1f7a4d" opacity="0.95"/><text x="1348" y="136" font-size="15" font-weight="700" fill="white" font-family="Helvetica, Arial, sans-serif">PASS</text><rect x="1348" y="145" width="160" height="12" rx="6" fill="white" opacity="0.22"/><rect x="1348" y="145" width="24.6" height="12" rx="6" fill="white" opacity="0.92"/><text x="1508" y="136" text-anchor="end" font-size="13" fill="white" font-family="Helvetica, Arial, sans-serif">92.6s</text><rect x="280" y="174" width="196" height="54" rx="10" fill="#c44536" opacity="0.95"/><text x="298" y="200" font-size="15" font-weight="700" fill="white" font-family="Helvetica, Arial, sans-serif">FAIL</text><rect x="298" y="209" width="160" height="12" rx="6" fill="white" opacity="0.22"/><rect x="298" y="209" width="11.7" height="12" rx="6" fill="white" opacity="0.92"/><text x="458" y="200" text-anchor="end" font-size="13" fill="white" font-family="Helvetica, Arial, sans-serif">44.0s</text><rect x="490" y="174" width="196" height="54" rx="10" fill="#1f7a4d" opacity="0.95"/><text x="508" y="200" font-size="15" font-weight="700" fill="white" font-family="Helvetica, Arial, sans-serif">PASS</text><rect x="508" y="209" width="160" height="12" rx="6" fill="white" opacity="0.22"/><rect x="508" y="209" width="10.0" height="12" rx="6" fill="white" opacity="0.92"/><text x="668" y="200" text-anchor="end" font-size="13" fill="white" font-family="Helvetica, Arial, sans-serif">26.6s</text><rect x="700" y="174" width="196" height="54" rx="10" fill="#1f7a4d" opacity="0.95"/><text x="718" y="200" font-size="15" font-weight="700" fill="white" font-family="Helvetica, Arial, sans-serif">PASS</text><rect x="718" y="209" width="160" height="12" rx="6" fill="white" opacity="0.22"/><rect x="718" y="209" width="23.8" height="12" rx="6" fill="white" opacity="0.92"/><text x="878" y="200" text-anchor="end" font-size="13" fill="white" font-family="Helvetica, Arial, sans-serif">89.5s</text><rect x="910" y="174" width="196" height="54" rx="10" fill="#1f7a4d" opacity="0.95"/><text x="928" y="200" font-size="15" font-weight="700" fill="white" font-family="Helvetica, Arial, sans-serif">PASS</text><rect x="928" y="209" width="160" height="12" rx="6" fill="white" opacity="0.22"/><rect x="928" y="209" width="13.7" height="12" rx="6" fill="white" opacity="0.92"/><text x="1088" y="200" text-anchor="end" font-size="13" fill="white" font-family="Helvetica, Arial, sans-serif">51.4s</text><rect x="1120" y="174" width="196" height="54" rx="10" fill="#1f7a4d" opacity="0.95"/><text x="1138" y="200" font-size="15" font-weight="700" fill="white" font-family="Helvetica, Arial, sans-serif">PASS</text><rect x="1138" y="209" width="160" height="12" rx="6" fill="white" opacity="0.22"/><rect x="1138" y="209" width="35.5" height="12" rx="6" fill="white" opacity="0.92"/><text x="1298" y="200" text-anchor="end" font-size="13" fill="white" font-family="Helvetica, Arial, sans-serif">133.4s</text><rect x="1330" y="174" width="196" height="54" rx="10" fill="#1f7a4d" opacity="0.95"/><text x="1348" y="200" font-size="15" font-weight="700" fill="white" font-family="Helvetica, Arial, sans-serif">PASS</text><rect x="1348" y="209" width="160" height="12" rx="6" fill="white" opacity="0.22"/><rect x="1348" y="209" width="28.3" height="12" rx="6" fill="white" opacity="0.92"/><text x="1508" y="200" text-anchor="end" font-size="13" fill="white" font-family="Helvetica, Arial, sans-serif">106.5s</text><rect x="280" y="238" width="196" height="54" rx="10" fill="#c44536" opacity="0.95"/><text x="298" y="264" font-size="15" font-weight="700" fill="white" font-family="Helvetica, Arial, sans-serif">FAIL</text><rect x="298" y="273" width="160" height="12" rx="6" fill="white" opacity="0.22"/><rect x="298" y="273" width="115.6" height="12" rx="6" fill="white" opacity="0.92"/><text x="458" y="264" text-anchor="end" font-size="13" fill="white" font-family="Helvetica, Arial, sans-serif">434.3s</text><rect x="490" y="238" width="196" height="54" rx="10" fill="#1f7a4d" opacity="0.95"/><text x="508" y="264" font-size="15" font-weight="700" fill="white" font-family="Helvetica, Arial, sans-serif">PASS</text><rect x="508" y="273" width="160" height="12" rx="6" fill="white" opacity="0.22"/><rect x="508" y="273" width="64.9" height="12" rx="6" fill="white" opacity="0.92"/><text x="668" y="264" text-anchor="end" font-size="13" fill="white" font-family="Helvetica, Arial, sans-serif">243.9s</text><rect x="700" y="238" width="196" height="54" rx="10" fill="#1f7a4d" opacity="0.95"/><text x="718" y="264" font-size="15" font-weight="700" fill="white" font-family="Helvetica, Arial, sans-serif">PASS</text><rect x="718" y="273" width="160" height="12" rx="6" fill="white" opacity="0.22"/><rect x="718" y="273" width="29.1" height="12" rx="6" fill="white" opacity="0.92"/><text x="878" y="264" text-anchor="end" font-size="13" fill="white" font-family="Helvetica, Arial, sans-serif">109.4s</text><rect x="910" y="238" width="196" height="54" rx="10" fill="#1f7a4d" opacity="0.95"/><text x="928" y="264" font-size="15" font-weight="700" fill="white" font-family="Helvetica, Arial, sans-serif">PASS</text><rect x="928" y="273" width="160" height="12" rx="6" fill="white" opacity="0.22"/><rect x="928" y="273" width="26.9" height="12" rx="6" fill="white" opacity="0.92"/><text x="1088" y="264" text-anchor="end" font-size="13" fill="white" font-family="Helvetica, Arial, sans-serif">101.1s</text><rect x="1120" y="238" width="196" height="54" rx="10" fill="#1f7a4d" opacity="0.95"/><text x="1138" y="264" font-size="15" font-weight="700" fill="white" font-family="Helvetica, Arial, sans-serif">PASS</text><rect x="1138" y="273" width="160" height="12" rx="6" fill="white" opacity="0.22"/><rect x="1138" y="273" width="82.3" height="12" rx="6" fill="white" opacity="0.92"/><text x="1298" y="264" text-anchor="end" font-size="13" fill="white" font-family="Helvetica, Arial, sans-serif">309.2s</text><rect x="1330" y="238" width="196" height="54" rx="10" fill="#c44536" opacity="0.95"/><text x="1348" y="264" font-size="15" font-weight="700" fill="white" font-family="Helvetica, Arial, sans-serif">FAIL</text><rect x="1348" y="273" width="160" height="12" rx="6" fill="white" opacity="0.22"/><rect x="1348" y="273" width="112.1" height="12" rx="6" fill="white" opacity="0.92"/><text x="1508" y="264" text-anchor="end" font-size="13" fill="white" font-family="Helvetica, Arial, sans-serif">421.2s</text><rect x="280" y="302" width="196" height="54" rx="10" fill="#c44536" opacity="0.95"/><text x="298" y="328" font-size="15" font-weight="700" fill="white" font-family="Helvetica, Arial, sans-serif">FAIL</text><rect x="298" y="337" width="160" height="12" rx="6" fill="white" opacity="0.22"/><rect x="298" y="337" width="44.2" height="12" rx="6" fill="white" opacity="0.92"/><text x="458" y="328" text-anchor="end" font-size="13" fill="white" font-family="Helvetica, Arial, sans-serif">166.0s</text><rect x="490" y="302" width="196" height="54" rx="10" fill="#1f7a4d" opacity="0.95"/><text x="508" y="328" font-size="15" font-weight="700" fill="white" font-family="Helvetica, Arial, sans-serif">PASS</text><rect x="508" y="337" width="160" height="12" rx="6" fill="white" opacity="0.22"/><rect x="508" y="337" width="17.8" height="12" rx="6" fill="white" opacity="0.92"/><text x="668" y="328" text-anchor="end" font-size="13" fill="white" font-family="Helvetica, Arial, sans-serif">66.8s</text><rect x="700" y="302" width="196" height="54" rx="10" fill="#1f7a4d" opacity="0.95"/><text x="718" y="328" font-size="15" font-weight="700" fill="white" font-family="Helvetica, Arial, sans-serif">PASS</text><rect x="718" y="337" width="160" height="12" rx="6" fill="white" opacity="0.22"/><rect x="718" y="337" width="25.4" height="12" rx="6" fill="white" opacity="0.92"/><text x="878" y="328" text-anchor="end" font-size="13" fill="white" font-family="Helvetica, Arial, sans-serif">95.4s</text><rect x="910" y="302" width="196" height="54" rx="10" fill="#1f7a4d" opacity="0.95"/><text x="928" y="328" font-size="15" font-weight="700" fill="white" font-family="Helvetica, Arial, sans-serif">PASS</text><rect x="928" y="337" width="160" height="12" rx="6" fill="white" opacity="0.22"/><rect x="928" y="337" width="17.7" height="12" rx="6" fill="white" opacity="0.92"/><text x="1088" y="328" text-anchor="end" font-size="13" fill="white" font-family="Helvetica, Arial, sans-serif">66.6s</text><rect x="1120" y="302" width="196" height="54" rx="10" fill="#1f7a4d" opacity="0.95"/><text x="1138" y="328" font-size="15" font-weight="700" fill="white" font-family="Helvetica, Arial, sans-serif">PASS</text><rect x="1138" y="337" width="160" height="12" rx="6" fill="white" opacity="0.22"/><rect x="1138" y="337" width="137.8" height="12" rx="6" fill="white" opacity="0.92"/><text x="1298" y="328" text-anchor="end" font-size="13" fill="white" font-family="Helvetica, Arial, sans-serif">518.1s</text><rect x="1330" y="302" width="196" height="54" rx="10" fill="#1f7a4d" opacity="0.95"/><text x="1348" y="328" font-size="15" font-weight="700" fill="white" font-family="Helvetica, Arial, sans-serif">PASS</text><rect x="1348" y="337" width="160" height="12" rx="6" fill="white" opacity="0.22"/><rect x="1348" y="337" width="160.0" height="12" rx="6" fill="white" opacity="0.92"/><text x="1508" y="328" text-anchor="end" font-size="13" fill="white" font-family="Helvetica, Arial, sans-serif">601.4s</text><rect x="280" y="366" width="196" height="54" rx="10" fill="#c44536" opacity="0.95"/><text x="298" y="392" font-size="15" font-weight="700" fill="white" font-family="Helvetica, Arial, sans-serif">FAIL</text><rect x="298" y="401" width="160" height="12" rx="6" fill="white" opacity="0.22"/><rect x="298" y="401" width="72.1" height="12" rx="6" fill="white" opacity="0.92"/><text x="458" y="392" text-anchor="end" font-size="13" fill="white" font-family="Helvetica, Arial, sans-serif">270.8s</text><rect x="490" y="366" width="196" height="54" rx="10" fill="#1f7a4d" opacity="0.95"/><text x="508" y="392" font-size="15" font-weight="700" fill="white" font-family="Helvetica, Arial, sans-serif">PASS</text><rect x="508" y="401" width="160" height="12" rx="6" fill="white" opacity="0.22"/><rect x="508" y="401" width="20.7" height="12" rx="6" fill="white" opacity="0.92"/><text x="668" y="392" text-anchor="end" font-size="13" fill="white" font-family="Helvetica, Arial, sans-serif">78.0s</text><rect x="700" y="366" width="196" height="54" rx="10" fill="#c44536" opacity="0.95"/><text x="718" y="392" font-size="15" font-weight="700" fill="white" font-family="Helvetica, Arial, sans-serif">FAIL</text><rect x="718" y="401" width="160" height="12" rx="6" fill="white" opacity="0.22"/><rect x="718" y="401" width="15.1" height="12" rx="6" fill="white" opacity="0.92"/><text x="878" y="392" text-anchor="end" font-size="13" fill="white" font-family="Helvetica, Arial, sans-serif">56.8s</text><rect x="910" y="366" width="196" height="54" rx="10" fill="#1f7a4d" opacity="0.95"/><text x="928" y="392" font-size="15" font-weight="700" fill="white" font-family="Helvetica, Arial, sans-serif">PASS</text><rect x="928" y="401" width="160" height="12" rx="6" fill="white" opacity="0.22"/><rect x="928" y="401" width="18.5" height="12" rx="6" fill="white" opacity="0.92"/><text x="1088" y="392" text-anchor="end" font-size="13" fill="white" font-family="Helvetica, Arial, sans-serif">69.5s</text><rect x="1120" y="366" width="196" height="54" rx="10" fill="#1f7a4d" opacity="0.95"/><text x="1138" y="392" font-size="15" font-weight="700" fill="white" font-family="Helvetica, Arial, sans-serif">PASS</text><rect x="1138" y="401" width="160" height="12" rx="6" fill="white" opacity="0.22"/><rect x="1138" y="401" width="93.4" height="12" rx="6" fill="white" opacity="0.92"/><text x="1298" y="392" text-anchor="end" font-size="13" fill="white" font-family="Helvetica, Arial, sans-serif">351.0s</text><rect x="1330" y="366" width="196" height="54" rx="10" fill="#1f7a4d" opacity="0.95"/><text x="1348" y="392" font-size="15" font-weight="700" fill="white" font-family="Helvetica, Arial, sans-serif">PASS</text><rect x="1348" y="401" width="160" height="12" rx="6" fill="white" opacity="0.22"/><rect x="1348" y="401" width="67.0" height="12" rx="6" fill="white" opacity="0.92"/><text x="1508" y="392" text-anchor="end" font-size="13" fill="white" font-family="Helvetica, Arial, sans-serif">251.6s</text><rect x="60" y="566" width="160" height="12" rx="6" fill="#d8d2c8"/><rect x="60" y="566" width="80" height="12" rx="6" fill="#1c1b1a" opacity="0.65"/><text x="230" y="576" font-size="13" fill="#6a645d" font-family="Helvetica, Arial, sans-serif">Longer bar = longer runtime, scaled to the slowest run</text></svg>