<svg xmlns="http://www.w3.org/2000/svg" width="1100" height="830" viewBox="0 0 1100 830" role="img"><rect width="1100" height="830" fill="#f8f4ec"/><text x="60" y="52" font-size="30" font-weight="700" fill="#1c1b1a" font-family="Georgia, serif">Model breakdown by task</text><text x="60" y="80" font-size="15" fill="#6a645d" font-family="Helvetica, Arial, sans-serif">Each task gets its own section, with pass/fail and runtime bars for no-skill vs improved-skill.</text><rect x="60" y="110" width="980" height="218" rx="18" fill="white" opacity="0.72" stroke="#d8d2c8"/><text x="80" y="140" font-size="24" font-weight="700" fill="#1c1b1a" font-family="Georgia, serif">Dependency audit</text><rect x="330" y="124" width="16" height="16" rx="4" fill="#d97b29"/><text x="354" y="138" font-size="14" fill="#1c1b1a" font-family="Helvetica, Arial, sans-serif">No skill</text><rect x="710" y="124" width="16" height="16" rx="4" fill="#0b6e4f"/><text x="734" y="138" font-size="14" fill="#1c1b1a" font-family="Helvetica, Arial, sans-serif">Improved skill</text><text x="80" y="184" font-size="14" fill="#1c1b1a" font-family="Helvetica, Arial, sans-serif">Claude Sonnet 4.5</text><rect x="330" y="168" width="56" height="20" rx="10" fill="#c44536"/><text x="358" y="182" text-anchor="middle" font-size="11" font-weight="700" fill="white" font-family="Helvetica, Arial, sans-serif">FAIL</text><rect x="422" y="172" width="220" height="12" rx="6" fill="#d8d2c8"/><rect x="422" y="172" width="103.6" height="12" rx="6" fill="#c44536"/><text x="656" y="182" text-anchor="end" font-size="12" fill="#1c1b1a" font-family="Helvetica, Arial, sans-serif">283.1s</text><rect x="710" y="168" width="56" height="20" rx="10" fill="#1f7a4d"/><text x="738" y="182" text-anchor="middle" font-size="11" font-weight="700" fill="white" font-family="Helvetica, Arial, sans-serif">PASS</text><rect x="802" y="172" width="220" height="12" rx="6" fill="#d8d2c8"/><rect x="802" y="172" width="27.2" height="12" rx="6" fill="#1f7a4d"/><text x="1036" y="182" text-anchor="end" font-size="12" fill="#1c1b1a" font-family="Helvetica, Arial, sans-serif">74.3s</text><text x="80" y="214" font-size="14" fill="#1c1b1a" font-family="Helvetica, Arial, sans-serif">Gemini 3 Flash</text><rect x="330" y="198" width="56" height="20" rx="10" fill="#c44536"/><text x="358" y="212" text-anchor="middle" font-size="11" font-weight="700" fill="white" font-family="Helvetica, Arial, sans-serif">FAIL</text><rect x="422" y="202" width="220" height="12" rx="6" fill="#d8d2c8"/><rect x="422" y="202" width="16.1" height="12" rx="6" fill="#c44536"/><text x="656" y="212" text-anchor="end" font-size="12" fill="#1c1b1a" font-family="Helvetica, Arial, sans-serif">44.0s</text><rect x="710" y="198" width="56" height="20" rx="10" fill="#1f7a4d"/><text x="738" y="212" text-anchor="middle" font-size="11" font-weight="700" fill="white" font-family="Helvetica, Arial, sans-serif">PASS</text><rect x="802" y="202" width="220" height="12" rx="6" fill="#d8d2c8"/><rect x="802" y="202" width="9.7" height="12" rx="6" fill="#1f7a4d"/><text x="1036" y="212" text-anchor="end" font-size="12" fill="#1c1b1a" font-family="Helvetica, Arial, sans-serif">26.6s</text><text x="80" y="244" font-size="14" fill="#1c1b1a" font-family="Helvetica, Arial, sans-serif">Gemini 3 Pro</text><rect x="330" y="228" width="56" height="20" rx="10" fill="#c44536"/><text x="358" y="242" text-anchor="middle" font-size="11" font-weight="700" fill="white" font-family="Helvetica, Arial, sans-serif">FAIL</text><rect x="422" y="232" width="220" height="12" rx="6" fill="#d8d2c8"/><rect x="422" y="232" width="158.9" height="12" rx="6" fill="#c44536"/><text x="656" y="242" text-anchor="end" font-size="12" fill="#1c1b1a" font-family="Helvetica, Arial, sans-serif">434.3s</text><rect x="710" y="228" width="56" height="20" rx="10" fill="#1f7a4d"/><text x="738" y="242" text-anchor="middle" font-size="11" font-weight="700" fill="white" font-family="Helvetica, Arial, sans-serif">PASS</text><rect x="802" y="232" width="220" height="12" rx="6" fill="#d8d2c8"/><rect x="802" y="232" width="89.2" height="12" rx="6" fill="#1f7a4d"/><text x="1036" y="242" text-anchor="end" font-size="12" fill="#1c1b1a" font-family="Helvetica, Arial, sans-serif">243.9s</text><text x="80" y="274" font-size="14" fill="#1c1b1a" font-family="Helvetica, Arial, sans-serif">Kimi K2</text><rect x="330" y="258" width="56" height="20" rx="10" fill="#c44536"/><text x="358" y="272" text-anchor="middle" font-size="11" font-weight="700" fill="white" font-family="Helvetica, Arial, sans-serif">FAIL</text><rect x="422" y="262" width="220" height="12" rx="6" fill="#d8d2c8"/><rect x="422" y="262" width="60.7" height="12" rx="6" fill="#c44536"/><text x="656" y="272" text-anchor="end" font-size="12" fill="#1c1b1a" font-family="Helvetica, Arial, sans-serif">166.0s</text><rect x="710" y="258" width="56" height="20" rx="10" fill="#1f7a4d"/><text x="738" y="272" text-anchor="middle" font-size="11" font-weight="700" fill="white" font-family="Helvetica, Arial, sans-serif">PASS</text><rect x="802" y="262" width="220" height="12" rx="6" fill="#d8d2c8"/><rect x="802" y="262" width="24.4" height="12" rx="6" fill="#1f7a4d"/><text x="1036" y="272" text-anchor="end" font-size="12" fill="#1c1b1a" font-family="Helvetica, Arial, sans-serif">66.8s</text><text x="80" y="304" font-size="14" fill="#1c1b1a" font-family="Helvetica, Arial, sans-serif">MiniMax M2.5</text><rect x="330" y="288" width="56" height="20" rx="10" fill="#c44536"/><text x="358" y="302" text-anchor="middle" font-size="11" font-weight="700" fill="white" font-family="Helvetica, Arial, sans-serif">FAIL</text><rect x="422" y="292" width="220" height="12" rx="6" fill="#d8d2c8"/><rect x="422" y="292" width="99.1" height="12" rx="6" fill="#c44536"/><text x="656" y="302" text-anchor="end" font-size="12" fill="#1c1b1a" font-family="Helvetica, Arial, sans-serif">270.8s</text><rect x="710" y="288" width="56" height="20" rx="10" fill="#1f7a4d"/><text x="738" y="302" text-anchor="middle" font-size="11" font-weight="700" fill="white" font-family="Helvetica, Arial, sans-serif">PASS</text><rect x="802" y="292" width="220" height="12" rx="6" fill="#d8d2c8"/><rect x="802" y="292" width="28.5" height="12" rx="6" fill="#1f7a4d"/><text x="1036" y="302" text-anchor="end" font-size="12" fill="#1c1b1a" font-family="Helvetica, Arial, sans-serif">78.0s</text><rect x="60" y="350" width="980" height="218" rx="18" fill="white" opacity="0.72" stroke="#d8d2c8"/><text x="80" y="380" font-size="24" font-weight="700" fill="#1c1b1a" font-family="Georgia, serif">SEC financial report</text><rect x="330" y="364" width="16" height="16" rx="4" fill="#d97b29"/><text x="354" y="378" font-size="14" fill="#1c1b1a" font-family="Helvetica, Arial, sans-serif">No skill</text><rect x="710" y="364" width="16" height="16" rx="4" fill="#0b6e4f"/><text x="734" y="378" font-size="14" fill="#1c1b1a" font-family="Helvetica, Arial, sans-serif">Improved skill</text><text x="80" y="424" font-size="14" fill="#1c1b1a" font-family="Helvetica, Arial, sans-serif">Claude Sonnet 4.5</text><rect x="330" y="408" width="56" height="20" rx="10" fill="#1f7a4d"/><text x="358" y="422" text-anchor="middle" font-size="11" font-weight="700" fill="white" font-family="Helvetica, Arial, sans-serif">PASS</text><rect x="422" y="412" width="220" height="12" rx="6" fill="#d8d2c8"/><rect x="422" y="412" width="19.6" height="12" rx="6" fill="#1f7a4d"/><text x="656" y="422" text-anchor="end" font-size="12" fill="#1c1b1a" font-family="Helvetica, Arial, sans-serif">53.5s</text><rect x="710" y="408" width="56" height="20" rx="10" fill="#1f7a4d"/><text x="738" y="422" text-anchor="middle" font-size="11" font-weight="700" fill="white" font-family="Helvetica, Arial, sans-serif">PASS</text><rect x="802" y="412" width="220" height="12" rx="6" fill="#d8d2c8"/><rect x="802" y="412" width="20.7" height="12" rx="6" fill="#1f7a4d"/><text x="1036" y="422" text-anchor="end" font-size="12" fill="#1c1b1a" font-family="Helvetica, Arial, sans-serif">56.5s</text><text x="80" y="454" font-size="14" fill="#1c1b1a" font-family="Helvetica, Arial, sans-serif">Gemini 3 Flash</text><rect x="330" y="438" width="56" height="20" rx="10" fill="#1f7a4d"/><text x="358" y="452" text-anchor="middle" font-size="11" font-weight="700" fill="white" font-family="Helvetica, Arial, sans-serif">PASS</text><rect x="422" y="442" width="220" height="12" rx="6" fill="#d8d2c8"/><rect x="422" y="442" width="32.7" height="12" rx="6" fill="#1f7a4d"/><text x="656" y="452" text-anchor="end" font-size="12" fill="#1c1b1a" font-family="Helvetica, Arial, sans-serif">89.5s</text><rect x="710" y="438" width="56" height="20" rx="10" fill="#1f7a4d"/><text x="738" y="452" text-anchor="middle" font-size="11" font-weight="700" fill="white" font-family="Helvetica, Arial, sans-serif">PASS</text><rect x="802" y="442" width="220" height="12" rx="6" fill="#d8d2c8"/><rect x="802" y="442" width="18.8" height="12" rx="6" fill="#1f7a4d"/><text x="1036" y="452" text-anchor="end" font-size="12" fill="#1c1b1a" font-family="Helvetica, Arial, sans-serif">51.4s</text><text x="80" y="484" font-size="14" fill="#1c1b1a" font-family="Helvetica, Arial, sans-serif">Gemini 3 Pro</text><rect x="330" y="468" width="56" height="20" rx="10" fill="#1f7a4d"/><text x="358" y="482" text-anchor="middle" font-size="11" font-weight="700" fill="white" font-family="Helvetica, Arial, sans-serif">PASS</text><rect x="422" y="472" width="220" height="12" rx="6" fill="#d8d2c8"/><rect x="422" y="472" width="40.0" height="12" rx="6" fill="#1f7a4d"/><text x="656" y="482" text-anchor="end" font-size="12" fill="#1c1b1a" font-family="Helvetica, Arial, sans-serif">109.4s</text><rect x="710" y="468" width="56" height="20" rx="10" fill="#1f7a4d"/><text x="738" y="482" text-anchor="middle" font-size="11" font-weight="700" fill="white" font-family="Helvetica, Arial, sans-serif">PASS</text><rect x="802" y="472" width="220" height="12" rx="6" fill="#d8d2c8"/><rect x="802" y="472" width="37.0" height="12" rx="6" fill="#1f7a4d"/><text x="1036" y="482" text-anchor="end" font-size="12" fill="#1c1b1a" font-family="Helvetica, Arial, sans-serif">101.1s</text><text x="80" y="514" font-size="14" fill="#1c1b1a" font-family="Helvetica, Arial, sans-serif">Kimi K2</text><rect x="330" y="498" width="56" height="20" rx="10" fill="#1f7a4d"/><text x="358" y="512" text-anchor="middle" font-size="11" font-weight="700" fill="white" font-family="Helvetica, Arial, sans-serif">PASS</text><rect x="422" y="502" width="220" height="12" rx="6" fill="#d8d2c8"/><rect x="422" y="502" width="34.9" height="12" rx="6" fill="#1f7a4d"/><text x="656" y="512" text-anchor="end" font-size="12" fill="#1c1b1a" font-family="Helvetica, Arial, sans-serif">95.4s</text><rect x="710" y="498" width="56" height="20" rx="10" fill="#1f7a4d"/><text x="738" y="512" text-anchor="middle" font-size="11" font-weight="700" fill="white" font-family="Helvetica, Arial, sans-serif">PASS</text><rect x="802" y="502" width="220" height="12" rx="6" fill="#d8d2c8"/><rect x="802" y="502" width="24.4" height="12" rx="6" fill="#1f7a4d"/><text x="1036" y="512" text-anchor="end" font-size="12" fill="#1c1b1a" font-family="Helvetica, Arial, sans-serif">66.6s</text><text x="80" y="544" font-size="14" fill="#1c1b1a" font-family="Helvetica, Arial, sans-serif">MiniMax M2.5</text><rect x="330" y="528" width="56" height="20" rx="10" fill="#c44536"/><text x="358" y="542" text-anchor="middle" font-size="11" font-weight="700" fill="white" font-family="Helvetica, Arial, sans-serif">FAIL</text><rect x="422" y="532" width="220" height="12" rx="6" fill="#d8d2c8"/><rect x="422" y="532" width="20.8" height="12" rx="6" fill="#c44536"/><text x="656" y="542" text-anchor="end" font-size="12" fill="#1c1b1a" font-family="Helvetica, Arial, sans-serif">56.8s</text><rect x="710" y="528" width="56" height="20" rx="10" fill="#1f7a4d"/><text x="738" y="542" text-anchor="middle" font-size="11" font-weight="700" fill="white" font-family="Helvetica, Arial, sans-serif">PASS</text><rect x="802" y="532" width="220" height="12" rx="6" fill="#d8d2c8"/><rect x="802" y="532" width="25.4" height="12" rx="6" fill="#1f7a4d"/><text x="1036" y="542" text-anchor="end" font-size="12" fill="#1c1b1a" font-family="Helvetica, Arial, sans-serif">69.5s</text><rect x="60" y="590" width="980" height="218" rx="18" fill="white" opacity="0.72" stroke="#d8d2c8"/><text x="80" y="620" font-size="24" font-weight="700" fill="#1c1b1a" font-family="Georgia, serif">Sales pivot analysis</text><rect x="330" y="604" width="16" height="16" rx="4" fill="#d97b29"/><text x="354" y="618" font-size="14" fill="#1c1b1a" font-family="Helvetica, Arial, sans-serif">No skill</text><rect x="710" y="604" width="16" height="16" rx="4" fill="#0b6e4f"/><text x="734" y="618" font-size="14" fill="#1c1b1a" font-family="Helvetica, Arial, sans-serif">Improved skill</text><text x="80" y="664" font-size="14" fill="#1c1b1a" font-family="Helvetica, Arial, sans-serif">Claude Sonnet 4.5</text><rect x="330" y="648" width="56" height="20" rx="10" fill="#1f7a4d"/><text x="358" y="662" text-anchor="middle" font-size="11" font-weight="700" fill="white" font-family="Helvetica, Arial, sans-serif">PASS</text><rect x="422" y="652" width="220" height="12" rx="6" fill="#d8d2c8"/><rect x="422" y="652" width="40.5" height="12" rx="6" fill="#1f7a4d"/><text x="656" y="662" text-anchor="end" font-size="12" fill="#1c1b1a" font-family="Helvetica, Arial, sans-serif">110.7s</text><rect x="710" y="648" width="56" height="20" rx="10" fill="#1f7a4d"/><text x="738" y="662" text-anchor="middle" font-size="11" font-weight="700" fill="white" font-family="Helvetica, Arial, sans-serif">PASS</text><rect x="802" y="652" width="220" height="12" rx="6" fill="#d8d2c8"/><rect x="802" y="652" width="33.9" height="12" rx="6" fill="#1f7a4d"/><text x="1036" y="662" text-anchor="end" font-size="12" fill="#1c1b1a" font-family="Helvetica, Arial, sans-serif">92.6s</text><text x="80" y="694" font-size="14" fill="#1c1b1a" font-family="Helvetica, Arial, sans-serif">Gemini 3 Flash</text><rect x="330" y="678" width="56" height="20" rx="10" fill="#1f7a4d"/><text x="358" y="692" text-anchor="middle" font-size="11" font-weight="700" fill="white" font-family="Helvetica, Arial, sans-serif">PASS</text><rect x="422" y="682" width="220" height="12" rx="6" fill="#d8d2c8"/><rect x="422" y="682" width="48.8" height="12" rx="6" fill="#1f7a4d"/><text x="656" y="692" text-anchor="end" font-size="12" fill="#1c1b1a" font-family="Helvetica, Arial, sans-serif">133.4s</text><rect x="710" y="678" width="56" height="20" rx="10" fill="#1f7a4d"/><text x="738" y="692" text-anchor="middle" font-size="11" font-weight="700" fill="white" font-family="Helvetica, Arial, sans-serif">PASS</text><rect x="802" y="682" width="220" height="12" rx="6" fill="#d8d2c8"/><rect x="802" y="682" width="39.0" height="12" rx="6" fill="#1f7a4d"/><text x="1036" y="692" text-anchor="end" font-size="12" fill="#1c1b1a" font-family="Helvetica, Arial, sans-serif">106.5s</text><text x="80" y="724" font-size="14" fill="#1c1b1a" font-family="Helvetica, Arial, sans-serif">Gemini 3 Pro</text><rect x="330" y="708" width="56" height="20" rx="10" fill="#1f7a4d"/><text x="358" y="722" text-anchor="middle" font-size="11" font-weight="700" fill="white" font-family="Helvetica, Arial, sans-serif">PASS</text><rect x="422" y="712" width="220" height="12" rx="6" fill="#d8d2c8"/><rect x="422" y="712" width="113.1" height="12" rx="6" fill="#1f7a4d"/><text x="656" y="722" text-anchor="end" font-size="12" fill="#1c1b1a" font-family="Helvetica, Arial, sans-serif">309.2s</text><rect x="710" y="708" width="56" height="20" rx="10" fill="#c44536"/><text x="738" y="722" text-anchor="middle" font-size="11" font-weight="700" fill="white" font-family="Helvetica, Arial, sans-serif">FAIL</text><rect x="802" y="712" width="220" height="12" rx="6" fill="#d8d2c8"/><rect x="802" y="712" width="154.1" height="12" rx="6" fill="#c44536"/><text x="1036" y="722" text-anchor="end" font-size="12" fill="#1c1b1a" font-family="Helvetica, Arial, sans-serif">421.2s</text><text x="80" y="754" font-size="14" fill="#1c1b1a" font-family="Helvetica, Arial, sans-serif">Kimi K2</text><rect x="330" y="738" width="56" height="20" rx="10" fill="#1f7a4d"/><text x="358" y="752" text-anchor="middle" font-size="11" font-weight="700" fill="white" font-family="Helvetica, Arial, sans-serif">PASS</text><rect x="422" y="742" width="220" height="12" rx="6" fill="#d8d2c8"/><rect x="422" y="742" width="189.5" height="12" rx="6" fill="#1f7a4d"/><text x="656" y="752" text-anchor="end" font-size="12" fill="#1c1b1a" font-family="Helvetica, Arial, sans-serif">518.1s</text><rect x="710" y="738" width="56" height="20" rx="10" fill="#1f7a4d"/><text x="738" y="752" text-anchor="middle" font-size="11" font-weight="700" fill="white" font-family="Helvetica, Arial, sans-serif">PASS</text><rect x="802" y="742" width="220" height="12" rx="6" fill="#d8d2c8"/><rect x="802" y="742" width="220.0" height="12" rx="6" fill="#1f7a4d"/><text x="1036" y="752" text-anchor="end" font-size="12" fill="#1c1b1a" font-family="Helvetica, Arial, sans-serif">601.4s</text><text x="80" y="784" font-size="14" fill="#1c1b1a" font-family="Helvetica, Arial, sans-serif">MiniMax M2.5</text><rect x="330" y="768" width="56" height="20" rx="10" fill="#1f7a4d"/><text x="358" y="782" text-anchor="middle" font-size="11" font-weight="700" fill="white" font-family="Helvetica, Arial, sans-serif">PASS</text><rect x="422" y="772" width="220" height="12" rx="6" fill="#d8d2c8"/><rect x="422" y="772" width="128.4" height="12" rx="6" fill="#1f7a4d"/><text x="656" y="782" text-anchor="end" font-size="12" fill="#1c1b1a" font-family="Helvetica, Arial, sans-serif">351.0s</text><rect x="710" y="768" width="56" height="20" rx="10" fill="#1f7a4d"/><text x="738" y="782" text-anchor="middle" font-size="11" font-weight="700" fill="white" font-family="Helvetica, Arial, sans-serif">PASS</text><rect x="802" y="772" width="220" height="12" rx="6" fill="#d8d2c8"/><rect x="802" y="772" width="92.1" height="12" rx="6" fill="#1f7a4d"/><text x="1036" y="782" text-anchor="end" font-size="12" fill="#1c1b1a" font-family="Helvetica, Arial, sans-serif">251.6s</text><text x="60" y="812" font-size="13" fill="#6a645d" font-family="Helvetica, Arial, sans-serif">Longer bars mean longer runtime, scaled to the slowest run in the full matrix.</text></svg>