<svg xmlns="http://www.w3.org/2000/svg" width="1100" height="640" viewBox="0 0 1100 640" role="img"><rect width="1100" height="640" fill="#f8f4ec"/><text x="110" y="52" font-size="30" font-weight="700" fill="#1c1b1a" font-family="Georgia, serif">Pass rate by task</text><text x="110" y="80" font-size="15" fill="#6a645d" font-family="Helvetica, Arial, sans-serif">Model-specific runs only. Higher is better.</text><line x1="110" y1="530.0" x2="1060" y2="530.0" stroke="#d8d2c8" stroke-width="1"/><text x="96" y="535.0" text-anchor="end" font-size="13" fill="#6a645d" font-family="Helvetica, Arial, sans-serif">0%</text><line x1="110" y1="446.0" x2="1060" y2="446.0" stroke="#d8d2c8" stroke-width="1"/><text x="96" y="451.0" text-anchor="end" font-size="13" fill="#6a645d" font-family="Helvetica, Arial, sans-serif">20%</text><line x1="110" y1="362.0" x2="1060" y2="362.0" stroke="#d8d2c8" stroke-width="1"/><text x="96" y="367.0" text-anchor="end" font-size="13" fill="#6a645d" font-family="Helvetica, Arial, sans-serif">40%</text><line x1="110" y1="278.0" x2="1060" y2="278.0" stroke="#d8d2c8" stroke-width="1"/><text x="96" y="283.0" text-anchor="end" font-size="13" fill="#6a645d" font-family="Helvetica, Arial, sans-serif">60%</text><line x1="110" y1="194.0" x2="1060" y2="194.0" stroke="#d8d2c8" stroke-width="1"/><text x="96" y="199.0" text-anchor="end" font-size="13" fill="#6a645d" font-family="Helvetica, Arial, sans-serif">80%</text><line x1="110" y1="110.0" x2="1060" y2="110.0" stroke="#d8d2c8" stroke-width="1"/><text x="96" y="115.0" text-anchor="end" font-size="13" fill="#6a645d" font-family="Helvetica, Arial, sans-serif">100%</text><text x="272.0" y="598" text-anchor="middle" font-size="14" fill="#1c1b1a" font-family="Helvetica, Arial, sans-serif">Dependency audit</text><rect x="170.0" y="528.0" width="90" height="2.0" rx="8" fill="#d97b29"/><text x="215.0" y="518.0" text-anchor="middle" font-size="14" fill="#1c1b1a" font-family="Helvetica, Arial, sans-serif">0.0%</text><rect x="284.0" y="110.0" width="90" height="420.0" rx="8" fill="#0b6e4f"/><text x="329.0" y="100.0" text-anchor="middle" font-size="14" fill="#1c1b1a" font-family="Helvetica, Arial, sans-serif">100.0%</text><text x="546.0" y="598" text-anchor="middle" font-size="14" fill="#1c1b1a" font-family="Helvetica, Arial, sans-serif">SEC financial report</text><rect x="444.0" y="152.0" width="90" height="378.0" rx="8" fill="#d97b29"/><text x="489.0" y="142.0" text-anchor="middle" font-size="14" fill="#1c1b1a" font-family="Helvetica, Arial, sans-serif">90.0%</text><rect x="558.0" y="110.0" width="90" height="420.0" rx="8" fill="#0b6e4f"/><text x="603.0" y="100.0" text-anchor="middle" font-size="14" fill="#1c1b1a" font-family="Helvetica, Arial, sans-serif">100.0%</text><text x="820.0" y="598" text-anchor="middle" font-size="14" fill="#1c1b1a" font-family="Helvetica, Arial, sans-serif">Sales pivot analysis</text><rect x="718.0" y="236.0" width="90" height="294.0" rx="8" fill="#d97b29"/><text x="763.0" y="226.0" text-anchor="middle" font-size="14" fill="#1c1b1a" font-family="Helvetica, Arial, sans-serif">70.0%</text><rect x="832.0" y="194.0" width="90" height="336.0" rx="8" fill="#0b6e4f"/><text x="877.0" y="184.0" text-anchor="middle" font-size="14" fill="#1c1b1a" font-family="Helvetica, Arial, sans-serif">80.0%</text><rect x="780" y="546" width="18" height="18" rx="4" fill="#d97b29"/><text x="808" y="560" font-size="14" fill="#1c1b1a" font-family="Helvetica, Arial, sans-serif">No skill</text><rect x="930" y="546" width="18" height="18" rx="4" fill="#0b6e4f"/><text x="958" y="560" font-size="14" fill="#1c1b1a" font-family="Helvetica, Arial, sans-serif">Improved skill</text></svg>