<svg xmlns="http://www.w3.org/2000/svg" width="1100" height="640" viewBox="0 0 1100 640" role="img"><rect width="1100" height="640" fill="#f8f4ec"/><text x="110" y="52" font-size="30" font-weight="700" fill="#1c1b1a" font-family="Georgia, serif">Average runtime by task</text><text x="110" y="80" font-size="15" fill="#6a645d" font-family="Helvetica, Arial, sans-serif">Average seconds across model-specific runs. Lower is better.</text><line x1="110" y1="530.0" x2="1060" y2="530.0" stroke="#d8d2c8" stroke-width="1"/><text x="96" y="535.0" text-anchor="end" font-size="13" fill="#6a645d" font-family="Helvetica, Arial, sans-serif">0s</text><line x1="110" y1="446.0" x2="1060" y2="446.0" stroke="#d8d2c8" stroke-width="1"/><text x="96" y="451.0" text-anchor="end" font-size="13" fill="#6a645d" font-family="Helvetica, Arial, sans-serif">61s</text><line x1="110" y1="362.0" x2="1060" y2="362.0" stroke="#d8d2c8" stroke-width="1"/><text x="96" y="367.0" text-anchor="end" font-size="13" fill="#6a645d" font-family="Helvetica, Arial, sans-serif">122s</text><line x1="110" y1="278.0" x2="1060" y2="278.0" stroke="#d8d2c8" stroke-width="1"/><text x="96" y="283.0" text-anchor="end" font-size="13" fill="#6a645d" font-family="Helvetica, Arial, sans-serif">183s</text><line x1="110" y1="194.0" x2="1060" y2="194.0" stroke="#d8d2c8" stroke-width="1"/><text x="96" y="199.0" text-anchor="end" font-size="13" fill="#6a645d" font-family="Helvetica, Arial, sans-serif">244s</text><line x1="110" y1="110.0" x2="1060" y2="110.0" stroke="#d8d2c8" stroke-width="1"/><text x="96" y="115.0" text-anchor="end" font-size="13" fill="#6a645d" font-family="Helvetica, Arial, sans-serif">305s</text><text x="272.0" y="598" text-anchor="middle" font-size="14" fill="#1c1b1a" font-family="Helvetica, Arial, sans-serif">Dependency audit</text><rect x="170.0" y="164.8" width="90" height="365.2" rx="8" fill="#d97b29"/><text x="215.0" y="154.8" text-anchor="middle" font-size="14" fill="#1c1b1a" font-family="Helvetica, Arial, sans-serif">265.4s</text><rect x="284.0" y="366.3" width="90" height="163.7" rx="8" fill="#0b6e4f"/><text x="329.0" y="356.3" text-anchor="middle" font-size="14" fill="#1c1b1a" font-family="Helvetica, Arial, sans-serif">118.9s</text><text x="546.0" y="598" text-anchor="middle" font-size="14" fill="#1c1b1a" font-family="Helvetica, Arial, sans-serif">SEC financial report</text><rect x="444.0" y="424.3" width="90" height="105.7" rx="8" fill="#d97b29"/><text x="489.0" y="414.3" text-anchor="middle" font-size="14" fill="#1c1b1a" font-family="Helvetica, Arial, sans-serif">76.8s</text><rect x="558.0" y="379.3" width="90" height="150.7" rx="8" fill="#0b6e4f"/><text x="603.0" y="369.3" text-anchor="middle" font-size="14" fill="#1c1b1a" font-family="Helvetica, Arial, sans-serif">109.5s</text><text x="820.0" y="598" text-anchor="middle" font-size="14" fill="#1c1b1a" font-family="Helvetica, Arial, sans-serif">Sales pivot analysis</text><rect x="718.0" y="195.1" width="90" height="334.9" rx="8" fill="#d97b29"/><text x="763.0" y="185.1" text-anchor="middle" font-size="14" fill="#1c1b1a" font-family="Helvetica, Arial, sans-serif">243.4s</text><rect x="832.0" y="296.3" width="90" height="233.7" rx="8" fill="#0b6e4f"/><text x="877.0" y="286.3" text-anchor="middle" font-size="14" fill="#1c1b1a" font-family="Helvetica, Arial, sans-serif">169.8s</text><rect x="780" y="546" width="18" height="18" rx="4" fill="#d97b29"/><text x="808" y="560" font-size="14" fill="#1c1b1a" font-family="Helvetica, Arial, sans-serif">No skill</text><rect x="930" y="546" width="18" height="18" rx="4" fill="#0b6e4f"/><text x="958" y="560" font-size="14" fill="#1c1b1a" font-family="Helvetica, Arial, sans-serif">Improved skill</text></svg>